%TF.GenerationSoftware,KiCad,Pcbnew,(5.1.9)-1*%
%TF.CreationDate,2021-07-27T17:11:52-05:00*%
%TF.ProjectId,THIS-Esquem_tico-KiCad,54484953-2d45-4737-9175-656de1746963,rev?*%
%TF.SameCoordinates,Original*%
%TF.FileFunction,Copper,L2,Bot*%
%TF.FilePolarity,Positive*%
%FSLAX46Y46*%
G04 Gerber Fmt 4.6, Leading zero omitted, Abs format (unit mm)*
G04 Created by KiCad (PCBNEW (5.1.9)-1) date 2021-07-27 17:11:52*
%MOMM*%
%LPD*%
G01*
G04 APERTURE LIST*
%TA.AperFunction,ComponentPad*%
%ADD10C,1.524000*%
%TD*%
%TA.AperFunction,ComponentPad*%
%ADD11R,1.524000X1.524000*%
%TD*%
G04 APERTURE END LIST*
D10*
%TO.P,SHIELD-RASP3,39*%
%TO.N,N/C*%
X131318000Y-98298000D03*
%TO.P,SHIELD-RASP3,37*%
X131318000Y-95758000D03*
%TO.P,SHIELD-RASP3,35*%
X131318000Y-93218000D03*
%TO.P,SHIELD-RASP3,33*%
X131318000Y-90678000D03*
%TO.P,SHIELD-RASP3,31*%
X131318000Y-88138000D03*
%TO.P,SHIELD-RASP3,29*%
X131318000Y-85598000D03*
%TO.P,SHIELD-RASP3,27*%
X131318000Y-83058000D03*
%TO.P,SHIELD-RASP3,25*%
X131318000Y-80518000D03*
%TO.P,SHIELD-RASP3,23*%
X131318000Y-77978000D03*
%TO.P,SHIELD-RASP3,21*%
X131318000Y-75438000D03*
%TO.P,SHIELD-RASP3,19*%
X131318000Y-72898000D03*
%TO.P,SHIELD-RASP3,17*%
X131318000Y-70358000D03*
%TO.P,SHIELD-RASP3,15*%
X131318000Y-67818000D03*
%TO.P,SHIELD-RASP3,13*%
X131318000Y-65278000D03*
%TO.P,SHIELD-RASP3,11*%
X131318000Y-62738000D03*
%TO.P,SHIELD-RASP3,9*%
X131318000Y-60198000D03*
%TO.P,SHIELD-RASP3,7*%
X131318000Y-57658000D03*
%TO.P,SHIELD-RASP3,5*%
X131318000Y-55118000D03*
%TO.P,SHIELD-RASP3,3*%
X131318000Y-52578000D03*
D11*
%TO.P,SHIELD-RASP3,1*%
X131318000Y-50038000D03*
D10*
%TO.P,SHIELD-RASP3,40*%
X133858000Y-98298000D03*
%TO.P,SHIELD-RASP3,38*%
X133858000Y-95758000D03*
%TO.P,SHIELD-RASP3,36*%
X133858000Y-93218000D03*
%TO.P,SHIELD-RASP3,34*%
X133858000Y-90678000D03*
%TO.P,SHIELD-RASP3,32*%
X133858000Y-88138000D03*
%TO.P,SHIELD-RASP3,30*%
X133858000Y-85598000D03*
%TO.P,SHIELD-RASP3,28*%
X133858000Y-83058000D03*
%TO.P,SHIELD-RASP3,26*%
X133858000Y-80518000D03*
%TO.P,SHIELD-RASP3,24*%
X133858000Y-77978000D03*
%TO.P,SHIELD-RASP3,22*%
X133858000Y-75438000D03*
%TO.P,SHIELD-RASP3,20*%
X133858000Y-72898000D03*
%TO.P,SHIELD-RASP3,18*%
X133858000Y-70358000D03*
%TO.P,SHIELD-RASP3,16*%
X133858000Y-67818000D03*
%TO.P,SHIELD-RASP3,14*%
X133858000Y-65278000D03*
%TO.P,SHIELD-RASP3,12*%
X133858000Y-62738000D03*
%TO.P,SHIELD-RASP3,10*%
X133858000Y-60198000D03*
%TO.P,SHIELD-RASP3,8*%
X133858000Y-57658000D03*
%TO.P,SHIELD-RASP3,6*%
X133858000Y-55118000D03*
%TO.P,SHIELD-RASP3,4*%
X133858000Y-52578000D03*
%TO.P,SHIELD-RASP3,2*%
X133858000Y-50038000D03*
%TD*%
%TO.P,ADS1115,10*%
%TO.N,N/C*%
X153670000Y-71628000D03*
%TO.P,ADS1115,9*%
X153670000Y-74168000D03*
%TO.P,ADS1115,8*%
X153670000Y-76708000D03*
%TO.P,ADS1115,7*%
X153670000Y-79248000D03*
%TO.P,ADS1115,6*%
X153670000Y-81788000D03*
%TO.P,ADS1115,5*%
X153670000Y-84328000D03*
%TO.P,ADS1115,4*%
X153670000Y-86868000D03*
%TO.P,ADS1115,3*%
X153670000Y-89408000D03*
%TO.P,ADS1115,2*%
X153670000Y-91948000D03*
D11*
%TO.P,ADS1115,1*%
X153670000Y-94488000D03*
%TD*%
D10*
%TO.P,SHIELD5X5,2*%
%TO.N,N/C*%
X139954000Y-58166000D03*
%TO.P,SHIELD5X5,3*%
X139954000Y-55626000D03*
%TO.P,SHIELD5X5,5*%
X139954000Y-50546000D03*
%TO.P,SHIELD5X5,1*%
X139954000Y-60706000D03*
%TO.P,SHIELD5X5,4*%
X139954000Y-53086000D03*
%TO.P,SHIELD5X5,2*%
X143002000Y-58166000D03*
%TO.P,SHIELD5X5,3*%
X143002000Y-55626000D03*
%TO.P,SHIELD5X5,5*%
X143002000Y-50546000D03*
%TO.P,SHIELD5X5,1*%
X143002000Y-60706000D03*
%TO.P,SHIELD5X5,4*%
X143002000Y-53086000D03*
%TO.P,SHIELD5X5,2*%
X146304000Y-58166000D03*
%TO.P,SHIELD5X5,3*%
X146304000Y-55626000D03*
%TO.P,SHIELD5X5,5*%
X146304000Y-50546000D03*
%TO.P,SHIELD5X5,1*%
X146304000Y-60706000D03*
%TO.P,SHIELD5X5,4*%
X146304000Y-53086000D03*
%TO.P,SHIELD5X5,2*%
X149606000Y-58166000D03*
%TO.P,SHIELD5X5,3*%
X149606000Y-55626000D03*
%TO.P,SHIELD5X5,5*%
X149606000Y-50546000D03*
%TO.P,SHIELD5X5,1*%
X149606000Y-60706000D03*
%TO.P,SHIELD5X5,4*%
X149606000Y-53086000D03*
%TO.P,SHIELD5X5,5*%
X152908000Y-50546000D03*
%TO.P,SHIELD5X5,4*%
X152908000Y-53086000D03*
%TO.P,SHIELD5X5,3*%
X152908000Y-55626000D03*
%TO.P,SHIELD5X5,2*%
X152908000Y-58166000D03*
%TO.P,SHIELD5X5,1*%
X152908000Y-60706000D03*
%TD*%
M02*
