%TF.GenerationSoftware,KiCad,Pcbnew,(5.1.9)-1*%
%TF.CreationDate,2021-07-27T17:11:53-05:00*%
%TF.ProjectId,THIS-Esquem_tico-KiCad,54484953-2d45-4737-9175-656de1746963,rev?*%
%TF.SameCoordinates,Original*%
%TF.FileFunction,Soldermask,Top*%
%TF.FilePolarity,Negative*%
%FSLAX46Y46*%
G04 Gerber Fmt 4.6, Leading zero omitted, Abs format (unit mm)*
G04 Created by KiCad (PCBNEW (5.1.9)-1) date 2021-07-27 17:11:53*
%MOMM*%
%LPD*%
G01*
G04 APERTURE LIST*
%ADD10C,1.524000*%
%ADD11R,1.524000X1.524000*%
G04 APERTURE END LIST*
D10*
%TO.C,SHIELD-RASP3*%
X131318000Y-98298000D03*
X131318000Y-95758000D03*
X131318000Y-93218000D03*
X131318000Y-90678000D03*
X131318000Y-88138000D03*
X131318000Y-85598000D03*
X131318000Y-83058000D03*
X131318000Y-80518000D03*
X131318000Y-77978000D03*
X131318000Y-75438000D03*
X131318000Y-72898000D03*
X131318000Y-70358000D03*
X131318000Y-67818000D03*
X131318000Y-65278000D03*
X131318000Y-62738000D03*
X131318000Y-60198000D03*
X131318000Y-57658000D03*
X131318000Y-55118000D03*
X131318000Y-52578000D03*
D11*
X131318000Y-50038000D03*
D10*
X133858000Y-98298000D03*
X133858000Y-95758000D03*
X133858000Y-93218000D03*
X133858000Y-90678000D03*
X133858000Y-88138000D03*
X133858000Y-85598000D03*
X133858000Y-83058000D03*
X133858000Y-80518000D03*
X133858000Y-77978000D03*
X133858000Y-75438000D03*
X133858000Y-72898000D03*
X133858000Y-70358000D03*
X133858000Y-67818000D03*
X133858000Y-65278000D03*
X133858000Y-62738000D03*
X133858000Y-60198000D03*
X133858000Y-57658000D03*
X133858000Y-55118000D03*
X133858000Y-52578000D03*
X133858000Y-50038000D03*
%TD*%
%TO.C,ADS1115*%
X153670000Y-71628000D03*
X153670000Y-74168000D03*
X153670000Y-76708000D03*
X153670000Y-79248000D03*
X153670000Y-81788000D03*
X153670000Y-84328000D03*
X153670000Y-86868000D03*
X153670000Y-89408000D03*
X153670000Y-91948000D03*
D11*
X153670000Y-94488000D03*
%TD*%
D10*
%TO.C,SHIELD5X5*%
X139954000Y-58166000D03*
X139954000Y-55626000D03*
X139954000Y-50546000D03*
X139954000Y-60706000D03*
X139954000Y-53086000D03*
X143002000Y-58166000D03*
X143002000Y-55626000D03*
X143002000Y-50546000D03*
X143002000Y-60706000D03*
X143002000Y-53086000D03*
X146304000Y-58166000D03*
X146304000Y-55626000D03*
X146304000Y-50546000D03*
X146304000Y-60706000D03*
X146304000Y-53086000D03*
X149606000Y-58166000D03*
X149606000Y-55626000D03*
X149606000Y-50546000D03*
X149606000Y-60706000D03*
X149606000Y-53086000D03*
X152908000Y-50546000D03*
X152908000Y-53086000D03*
X152908000Y-55626000D03*
X152908000Y-58166000D03*
X152908000Y-60706000D03*
%TD*%
M02*
