%TF.GenerationSoftware,KiCad,Pcbnew,(5.1.9)-1*%
%TF.CreationDate,2021-07-27T17:11:52-05:00*%
%TF.ProjectId,THIS-Esquem_tico-KiCad,54484953-2d45-4737-9175-656de1746963,rev?*%
%TF.SameCoordinates,Original*%
%TF.FileFunction,Legend,Top*%
%TF.FilePolarity,Positive*%
%FSLAX46Y46*%
G04 Gerber Fmt 4.6, Leading zero omitted, Abs format (unit mm)*
G04 Created by KiCad (PCBNEW (5.1.9)-1) date 2021-07-27 17:11:52*
%MOMM*%
%LPD*%
G01*
G04 APERTURE LIST*
%ADD10C,0.300000*%
%ADD11C,0.120000*%
%ADD12C,0.150000*%
G04 APERTURE END LIST*
D10*
X139542380Y-104000952D02*
X139542380Y-101500952D01*
X140732857Y-102691428D02*
X141566190Y-102691428D01*
X141923333Y-104000952D02*
X140732857Y-104000952D01*
X140732857Y-101500952D01*
X141923333Y-101500952D01*
X144423333Y-104000952D02*
X143590000Y-102810476D01*
X142994761Y-104000952D02*
X142994761Y-101500952D01*
X143947142Y-101500952D01*
X144185238Y-101620000D01*
X144304285Y-101739047D01*
X144423333Y-101977142D01*
X144423333Y-102334285D01*
X144304285Y-102572380D01*
X144185238Y-102691428D01*
X143947142Y-102810476D01*
X142994761Y-102810476D01*
X145494761Y-103048571D02*
X147399523Y-103048571D01*
X148590000Y-101500952D02*
X148590000Y-103524761D01*
X148709047Y-103762857D01*
X148828095Y-103881904D01*
X149066190Y-104000952D01*
X149542380Y-104000952D01*
X149780476Y-103881904D01*
X149899523Y-103762857D01*
X150018571Y-103524761D01*
X150018571Y-101500952D01*
X151209047Y-104000952D02*
X151209047Y-101500952D01*
X152637619Y-104000952D01*
X152637619Y-101500952D01*
X153709047Y-103286666D02*
X154899523Y-103286666D01*
X153470952Y-104000952D02*
X154304285Y-101500952D01*
X155137619Y-104000952D01*
X155970952Y-104000952D02*
X155970952Y-101500952D01*
X156804285Y-103286666D01*
X157637619Y-101500952D01*
X157637619Y-104000952D01*
D11*
%TO.C,SHIELD-RASP3*%
X128524000Y-100330000D02*
X128524000Y-48006000D01*
X136652000Y-100330000D02*
X128524000Y-100330000D01*
X136652000Y-48006000D02*
X136652000Y-100330000D01*
X128524000Y-48006000D02*
X136652000Y-48006000D01*
%TO.C,ADS1115*%
X142748000Y-93218000D02*
G75*
G03*
X142748000Y-93218000I-1778000J0D01*
G01*
X142748000Y-72644000D02*
G75*
G03*
X142748000Y-72644000I-1778000J0D01*
G01*
X138176000Y-69596000D02*
X155194000Y-69596000D01*
X138176000Y-96266000D02*
X138176000Y-69596000D01*
X138176000Y-96266000D02*
X155194000Y-96266000D01*
X155194000Y-69596000D02*
X155194000Y-96266000D01*
%TO.C,SHIELD5X5*%
X154940000Y-48514000D02*
X137922000Y-48514000D01*
X137922000Y-48514000D02*
X137922000Y-68834000D01*
X137922000Y-68834000D02*
X154940000Y-68834000D01*
X154940000Y-68834000D02*
X154940000Y-48514000D01*
%TO.C,ADS1115*%
D12*
X143676666Y-85923047D02*
X143676666Y-85446857D01*
X143962380Y-86018285D02*
X142962380Y-85684952D01*
X143962380Y-85351619D01*
X143962380Y-85018285D02*
X142962380Y-85018285D01*
X142962380Y-84780190D01*
X143010000Y-84637333D01*
X143105238Y-84542095D01*
X143200476Y-84494476D01*
X143390952Y-84446857D01*
X143533809Y-84446857D01*
X143724285Y-84494476D01*
X143819523Y-84542095D01*
X143914761Y-84637333D01*
X143962380Y-84780190D01*
X143962380Y-85018285D01*
X143914761Y-84065904D02*
X143962380Y-83923047D01*
X143962380Y-83684952D01*
X143914761Y-83589714D01*
X143867142Y-83542095D01*
X143771904Y-83494476D01*
X143676666Y-83494476D01*
X143581428Y-83542095D01*
X143533809Y-83589714D01*
X143486190Y-83684952D01*
X143438571Y-83875428D01*
X143390952Y-83970666D01*
X143343333Y-84018285D01*
X143248095Y-84065904D01*
X143152857Y-84065904D01*
X143057619Y-84018285D01*
X143010000Y-83970666D01*
X142962380Y-83875428D01*
X142962380Y-83637333D01*
X143010000Y-83494476D01*
X143962380Y-82542095D02*
X143962380Y-83113523D01*
X143962380Y-82827809D02*
X142962380Y-82827809D01*
X143105238Y-82923047D01*
X143200476Y-83018285D01*
X143248095Y-83113523D01*
X143962380Y-81589714D02*
X143962380Y-82161142D01*
X143962380Y-81875428D02*
X142962380Y-81875428D01*
X143105238Y-81970666D01*
X143200476Y-82065904D01*
X143248095Y-82161142D01*
X143962380Y-80637333D02*
X143962380Y-81208761D01*
X143962380Y-80923047D02*
X142962380Y-80923047D01*
X143105238Y-81018285D01*
X143200476Y-81113523D01*
X143248095Y-81208761D01*
X142962380Y-79732571D02*
X142962380Y-80208761D01*
X143438571Y-80256380D01*
X143390952Y-80208761D01*
X143343333Y-80113523D01*
X143343333Y-79875428D01*
X143390952Y-79780190D01*
X143438571Y-79732571D01*
X143533809Y-79684952D01*
X143771904Y-79684952D01*
X143867142Y-79732571D01*
X143914761Y-79780190D01*
X143962380Y-79875428D01*
X143962380Y-80113523D01*
X143914761Y-80208761D01*
X143867142Y-80256380D01*
X150923714Y-71794666D02*
X151399904Y-71794666D01*
X150828476Y-72080380D02*
X151161809Y-71080380D01*
X151495142Y-72080380D01*
X151733238Y-71080380D02*
X152352285Y-71080380D01*
X152018952Y-71461333D01*
X152161809Y-71461333D01*
X152257047Y-71508952D01*
X152304666Y-71556571D01*
X152352285Y-71651809D01*
X152352285Y-71889904D01*
X152304666Y-71985142D01*
X152257047Y-72032761D01*
X152161809Y-72080380D01*
X151876095Y-72080380D01*
X151780857Y-72032761D01*
X151733238Y-71985142D01*
X150923714Y-74334666D02*
X151399904Y-74334666D01*
X150828476Y-74620380D02*
X151161809Y-73620380D01*
X151495142Y-74620380D01*
X151780857Y-73715619D02*
X151828476Y-73668000D01*
X151923714Y-73620380D01*
X152161809Y-73620380D01*
X152257047Y-73668000D01*
X152304666Y-73715619D01*
X152352285Y-73810857D01*
X152352285Y-73906095D01*
X152304666Y-74048952D01*
X151733238Y-74620380D01*
X152352285Y-74620380D01*
X150923714Y-76874666D02*
X151399904Y-76874666D01*
X150828476Y-77160380D02*
X151161809Y-76160380D01*
X151495142Y-77160380D01*
X152352285Y-77160380D02*
X151780857Y-77160380D01*
X152066571Y-77160380D02*
X152066571Y-76160380D01*
X151971333Y-76303238D01*
X151876095Y-76398476D01*
X151780857Y-76446095D01*
X150923714Y-79414666D02*
X151399904Y-79414666D01*
X150828476Y-79700380D02*
X151161809Y-78700380D01*
X151495142Y-79700380D01*
X152018952Y-78700380D02*
X152114190Y-78700380D01*
X152209428Y-78748000D01*
X152257047Y-78795619D01*
X152304666Y-78890857D01*
X152352285Y-79081333D01*
X152352285Y-79319428D01*
X152304666Y-79509904D01*
X152257047Y-79605142D01*
X152209428Y-79652761D01*
X152114190Y-79700380D01*
X152018952Y-79700380D01*
X151923714Y-79652761D01*
X151876095Y-79605142D01*
X151828476Y-79509904D01*
X151780857Y-79319428D01*
X151780857Y-79081333D01*
X151828476Y-78890857D01*
X151876095Y-78795619D01*
X151923714Y-78748000D01*
X152018952Y-78700380D01*
X149352190Y-81954666D02*
X149828380Y-81954666D01*
X149256952Y-82240380D02*
X149590285Y-81240380D01*
X149923619Y-82240380D01*
X150733142Y-82240380D02*
X150256952Y-82240380D01*
X150256952Y-81240380D01*
X151637904Y-82240380D02*
X151304571Y-81764190D01*
X151066476Y-82240380D02*
X151066476Y-81240380D01*
X151447428Y-81240380D01*
X151542666Y-81288000D01*
X151590285Y-81335619D01*
X151637904Y-81430857D01*
X151637904Y-81573714D01*
X151590285Y-81668952D01*
X151542666Y-81716571D01*
X151447428Y-81764190D01*
X151066476Y-81764190D01*
X151923619Y-81240380D02*
X152495047Y-81240380D01*
X152209333Y-82240380D02*
X152209333Y-81240380D01*
X148883904Y-84494666D02*
X149360095Y-84494666D01*
X148788666Y-84780380D02*
X149122000Y-83780380D01*
X149455333Y-84780380D01*
X149788666Y-84780380D02*
X149788666Y-83780380D01*
X150026761Y-83780380D01*
X150169619Y-83828000D01*
X150264857Y-83923238D01*
X150312476Y-84018476D01*
X150360095Y-84208952D01*
X150360095Y-84351809D01*
X150312476Y-84542285D01*
X150264857Y-84637523D01*
X150169619Y-84732761D01*
X150026761Y-84780380D01*
X149788666Y-84780380D01*
X150788666Y-84780380D02*
X150788666Y-83780380D01*
X151026761Y-83780380D01*
X151169619Y-83828000D01*
X151264857Y-83923238D01*
X151312476Y-84018476D01*
X151360095Y-84208952D01*
X151360095Y-84351809D01*
X151312476Y-84542285D01*
X151264857Y-84637523D01*
X151169619Y-84732761D01*
X151026761Y-84780380D01*
X150788666Y-84780380D01*
X152360095Y-84780380D02*
X152026761Y-84304190D01*
X151788666Y-84780380D02*
X151788666Y-83780380D01*
X152169619Y-83780380D01*
X152264857Y-83828000D01*
X152312476Y-83875619D01*
X152360095Y-83970857D01*
X152360095Y-84113714D01*
X152312476Y-84208952D01*
X152264857Y-84256571D01*
X152169619Y-84304190D01*
X151788666Y-84304190D01*
X149915714Y-87272761D02*
X150058571Y-87320380D01*
X150296666Y-87320380D01*
X150391904Y-87272761D01*
X150439523Y-87225142D01*
X150487142Y-87129904D01*
X150487142Y-87034666D01*
X150439523Y-86939428D01*
X150391904Y-86891809D01*
X150296666Y-86844190D01*
X150106190Y-86796571D01*
X150010952Y-86748952D01*
X149963333Y-86701333D01*
X149915714Y-86606095D01*
X149915714Y-86510857D01*
X149963333Y-86415619D01*
X150010952Y-86368000D01*
X150106190Y-86320380D01*
X150344285Y-86320380D01*
X150487142Y-86368000D01*
X150915714Y-87320380D02*
X150915714Y-86320380D01*
X151153809Y-86320380D01*
X151296666Y-86368000D01*
X151391904Y-86463238D01*
X151439523Y-86558476D01*
X151487142Y-86748952D01*
X151487142Y-86891809D01*
X151439523Y-87082285D01*
X151391904Y-87177523D01*
X151296666Y-87272761D01*
X151153809Y-87320380D01*
X150915714Y-87320380D01*
X151868095Y-87034666D02*
X152344285Y-87034666D01*
X151772857Y-87320380D02*
X152106190Y-86320380D01*
X152439523Y-87320380D01*
X149939523Y-89812761D02*
X150082380Y-89860380D01*
X150320476Y-89860380D01*
X150415714Y-89812761D01*
X150463333Y-89765142D01*
X150510952Y-89669904D01*
X150510952Y-89574666D01*
X150463333Y-89479428D01*
X150415714Y-89431809D01*
X150320476Y-89384190D01*
X150130000Y-89336571D01*
X150034761Y-89288952D01*
X149987142Y-89241333D01*
X149939523Y-89146095D01*
X149939523Y-89050857D01*
X149987142Y-88955619D01*
X150034761Y-88908000D01*
X150130000Y-88860380D01*
X150368095Y-88860380D01*
X150510952Y-88908000D01*
X151510952Y-89765142D02*
X151463333Y-89812761D01*
X151320476Y-89860380D01*
X151225238Y-89860380D01*
X151082380Y-89812761D01*
X150987142Y-89717523D01*
X150939523Y-89622285D01*
X150891904Y-89431809D01*
X150891904Y-89288952D01*
X150939523Y-89098476D01*
X150987142Y-89003238D01*
X151082380Y-88908000D01*
X151225238Y-88860380D01*
X151320476Y-88860380D01*
X151463333Y-88908000D01*
X151510952Y-88955619D01*
X152415714Y-89860380D02*
X151939523Y-89860380D01*
X151939523Y-88860380D01*
X150368095Y-91448000D02*
X150272857Y-91400380D01*
X150130000Y-91400380D01*
X149987142Y-91448000D01*
X149891904Y-91543238D01*
X149844285Y-91638476D01*
X149796666Y-91828952D01*
X149796666Y-91971809D01*
X149844285Y-92162285D01*
X149891904Y-92257523D01*
X149987142Y-92352761D01*
X150130000Y-92400380D01*
X150225238Y-92400380D01*
X150368095Y-92352761D01*
X150415714Y-92305142D01*
X150415714Y-91971809D01*
X150225238Y-91971809D01*
X150844285Y-92400380D02*
X150844285Y-91400380D01*
X151415714Y-92400380D01*
X151415714Y-91400380D01*
X151891904Y-92400380D02*
X151891904Y-91400380D01*
X152130000Y-91400380D01*
X152272857Y-91448000D01*
X152368095Y-91543238D01*
X152415714Y-91638476D01*
X152463333Y-91828952D01*
X152463333Y-91971809D01*
X152415714Y-92162285D01*
X152368095Y-92257523D01*
X152272857Y-92352761D01*
X152130000Y-92400380D01*
X151891904Y-92400380D01*
X149796666Y-93940380D02*
X150130000Y-94940380D01*
X150463333Y-93940380D01*
X150796666Y-94940380D02*
X150796666Y-93940380D01*
X151034761Y-93940380D01*
X151177619Y-93988000D01*
X151272857Y-94083238D01*
X151320476Y-94178476D01*
X151368095Y-94368952D01*
X151368095Y-94511809D01*
X151320476Y-94702285D01*
X151272857Y-94797523D01*
X151177619Y-94892761D01*
X151034761Y-94940380D01*
X150796666Y-94940380D01*
X151796666Y-94940380D02*
X151796666Y-93940380D01*
X152034761Y-93940380D01*
X152177619Y-93988000D01*
X152272857Y-94083238D01*
X152320476Y-94178476D01*
X152368095Y-94368952D01*
X152368095Y-94511809D01*
X152320476Y-94702285D01*
X152272857Y-94797523D01*
X152177619Y-94892761D01*
X152034761Y-94940380D01*
X151796666Y-94940380D01*
%TO.C,SHIELD5X5*%
X142724666Y-66698761D02*
X142867523Y-66746380D01*
X143105619Y-66746380D01*
X143200857Y-66698761D01*
X143248476Y-66651142D01*
X143296095Y-66555904D01*
X143296095Y-66460666D01*
X143248476Y-66365428D01*
X143200857Y-66317809D01*
X143105619Y-66270190D01*
X142915142Y-66222571D01*
X142819904Y-66174952D01*
X142772285Y-66127333D01*
X142724666Y-66032095D01*
X142724666Y-65936857D01*
X142772285Y-65841619D01*
X142819904Y-65794000D01*
X142915142Y-65746380D01*
X143153238Y-65746380D01*
X143296095Y-65794000D01*
X143724666Y-66746380D02*
X143724666Y-65746380D01*
X143724666Y-66222571D02*
X144296095Y-66222571D01*
X144296095Y-66746380D02*
X144296095Y-65746380D01*
X144772285Y-66746380D02*
X144772285Y-65746380D01*
X145248476Y-66222571D02*
X145581809Y-66222571D01*
X145724666Y-66746380D02*
X145248476Y-66746380D01*
X145248476Y-65746380D01*
X145724666Y-65746380D01*
X146629428Y-66746380D02*
X146153238Y-66746380D01*
X146153238Y-65746380D01*
X146962761Y-66746380D02*
X146962761Y-65746380D01*
X147200857Y-65746380D01*
X147343714Y-65794000D01*
X147438952Y-65889238D01*
X147486571Y-65984476D01*
X147534190Y-66174952D01*
X147534190Y-66317809D01*
X147486571Y-66508285D01*
X147438952Y-66603523D01*
X147343714Y-66698761D01*
X147200857Y-66746380D01*
X146962761Y-66746380D01*
X148438952Y-65746380D02*
X147962761Y-65746380D01*
X147915142Y-66222571D01*
X147962761Y-66174952D01*
X148058000Y-66127333D01*
X148296095Y-66127333D01*
X148391333Y-66174952D01*
X148438952Y-66222571D01*
X148486571Y-66317809D01*
X148486571Y-66555904D01*
X148438952Y-66651142D01*
X148391333Y-66698761D01*
X148296095Y-66746380D01*
X148058000Y-66746380D01*
X147962761Y-66698761D01*
X147915142Y-66651142D01*
X148819904Y-65746380D02*
X149486571Y-66746380D01*
X149486571Y-65746380D02*
X148819904Y-66746380D01*
X150343714Y-65746380D02*
X149867523Y-65746380D01*
X149819904Y-66222571D01*
X149867523Y-66174952D01*
X149962761Y-66127333D01*
X150200857Y-66127333D01*
X150296095Y-66174952D01*
X150343714Y-66222571D01*
X150391333Y-66317809D01*
X150391333Y-66555904D01*
X150343714Y-66651142D01*
X150296095Y-66698761D01*
X150200857Y-66746380D01*
X149962761Y-66746380D01*
X149867523Y-66698761D01*
X149819904Y-66651142D01*
X139406380Y-63182476D02*
X139406380Y-63658666D01*
X139882571Y-63706285D01*
X139834952Y-63658666D01*
X139787333Y-63563428D01*
X139787333Y-63325333D01*
X139834952Y-63230095D01*
X139882571Y-63182476D01*
X139977809Y-63134857D01*
X140215904Y-63134857D01*
X140311142Y-63182476D01*
X140358761Y-63230095D01*
X140406380Y-63325333D01*
X140406380Y-63563428D01*
X140358761Y-63658666D01*
X140311142Y-63706285D01*
X139406380Y-62849142D02*
X140406380Y-62515809D01*
X139406380Y-62182476D01*
X142454380Y-64484095D02*
X142454380Y-63865047D01*
X142835333Y-64198380D01*
X142835333Y-64055523D01*
X142882952Y-63960285D01*
X142930571Y-63912666D01*
X143025809Y-63865047D01*
X143263904Y-63865047D01*
X143359142Y-63912666D01*
X143406761Y-63960285D01*
X143454380Y-64055523D01*
X143454380Y-64341238D01*
X143406761Y-64436476D01*
X143359142Y-64484095D01*
X142454380Y-63579333D02*
X143454380Y-63246000D01*
X142454380Y-62912666D01*
X142454380Y-62674571D02*
X142454380Y-62055523D01*
X142835333Y-62388857D01*
X142835333Y-62246000D01*
X142882952Y-62150761D01*
X142930571Y-62103142D01*
X143025809Y-62055523D01*
X143263904Y-62055523D01*
X143359142Y-62103142D01*
X143406761Y-62150761D01*
X143454380Y-62246000D01*
X143454380Y-62531714D01*
X143406761Y-62626952D01*
X143359142Y-62674571D01*
X150010761Y-64436476D02*
X150058380Y-64293619D01*
X150058380Y-64055523D01*
X150010761Y-63960285D01*
X149963142Y-63912666D01*
X149867904Y-63865047D01*
X149772666Y-63865047D01*
X149677428Y-63912666D01*
X149629809Y-63960285D01*
X149582190Y-64055523D01*
X149534571Y-64246000D01*
X149486952Y-64341238D01*
X149439333Y-64388857D01*
X149344095Y-64436476D01*
X149248857Y-64436476D01*
X149153619Y-64388857D01*
X149106000Y-64341238D01*
X149058380Y-64246000D01*
X149058380Y-64007904D01*
X149106000Y-63865047D01*
X149963142Y-62865047D02*
X150010761Y-62912666D01*
X150058380Y-63055523D01*
X150058380Y-63150761D01*
X150010761Y-63293619D01*
X149915523Y-63388857D01*
X149820285Y-63436476D01*
X149629809Y-63484095D01*
X149486952Y-63484095D01*
X149296476Y-63436476D01*
X149201238Y-63388857D01*
X149106000Y-63293619D01*
X149058380Y-63150761D01*
X149058380Y-63055523D01*
X149106000Y-62912666D01*
X149153619Y-62865047D01*
X150058380Y-61960285D02*
X150058380Y-62436476D01*
X149058380Y-62436476D01*
X152408000Y-64007904D02*
X152360380Y-64103142D01*
X152360380Y-64246000D01*
X152408000Y-64388857D01*
X152503238Y-64484095D01*
X152598476Y-64531714D01*
X152788952Y-64579333D01*
X152931809Y-64579333D01*
X153122285Y-64531714D01*
X153217523Y-64484095D01*
X153312761Y-64388857D01*
X153360380Y-64246000D01*
X153360380Y-64150761D01*
X153312761Y-64007904D01*
X153265142Y-63960285D01*
X152931809Y-63960285D01*
X152931809Y-64150761D01*
X153360380Y-63531714D02*
X152360380Y-63531714D01*
X153360380Y-62960285D01*
X152360380Y-62960285D01*
X153360380Y-62484095D02*
X152360380Y-62484095D01*
X152360380Y-62246000D01*
X152408000Y-62103142D01*
X152503238Y-62007904D01*
X152598476Y-61960285D01*
X152788952Y-61912666D01*
X152931809Y-61912666D01*
X153122285Y-61960285D01*
X153217523Y-62007904D01*
X153312761Y-62103142D01*
X153360380Y-62246000D01*
X153360380Y-62484095D01*
X146708761Y-64460285D02*
X146756380Y-64317428D01*
X146756380Y-64079333D01*
X146708761Y-63984095D01*
X146661142Y-63936476D01*
X146565904Y-63888857D01*
X146470666Y-63888857D01*
X146375428Y-63936476D01*
X146327809Y-63984095D01*
X146280190Y-64079333D01*
X146232571Y-64269809D01*
X146184952Y-64365047D01*
X146137333Y-64412666D01*
X146042095Y-64460285D01*
X145946857Y-64460285D01*
X145851619Y-64412666D01*
X145804000Y-64365047D01*
X145756380Y-64269809D01*
X145756380Y-64031714D01*
X145804000Y-63888857D01*
X146756380Y-63460285D02*
X145756380Y-63460285D01*
X145756380Y-63222190D01*
X145804000Y-63079333D01*
X145899238Y-62984095D01*
X145994476Y-62936476D01*
X146184952Y-62888857D01*
X146327809Y-62888857D01*
X146518285Y-62936476D01*
X146613523Y-62984095D01*
X146708761Y-63079333D01*
X146756380Y-63222190D01*
X146756380Y-63460285D01*
X146470666Y-62507904D02*
X146470666Y-62031714D01*
X146756380Y-62603142D02*
X145756380Y-62269809D01*
X146756380Y-61936476D01*
%TD*%
M02*
